HIERARCHY
ROOT mixamorig:Hips
{
	OFFSET 0.000000 85.230415 0.000000
	CHANNELS 6 Xposition Yposition Zposition Zrotation Yrotation Xrotation 
	JOINT mixamorig:Spine
	{
		OFFSET -0.000014 7.868595 1.166200
		CHANNELS 3 Zrotation Yrotation Xrotation
		JOINT mixamorig:Spine1
		{
			OFFSET 0.000000 8.307600 0.241180
			CHANNELS 3 Zrotation Yrotation Xrotation
			JOINT mixamorig:Spine2
			{
				OFFSET 0.000000 7.469998 -0.455969
				CHANNELS 3 Zrotation Yrotation Xrotation
				JOINT mixamorig:Neck
				{
					OFFSET 0.000000 21.623920 -3.130763
					CHANNELS 3 Zrotation Yrotation Xrotation
					JOINT mixamorig:Head
					{
						OFFSET 0.000000 8.979096 1.007916
						CHANNELS 3 Zrotation Yrotation Xrotation
						JOINT mixamorig:HeadTop_End
						{
							OFFSET 0.000000 36.978806 0.701265
							CHANNELS 3 Zrotation Yrotation Xrotation
							End Site
							{
								OFFSET 0.000000 0.000000 0.000000
							}
						}
						JOINT mixamorig:HairB
						{
							OFFSET -6.414200 28.771164 21.708258
							CHANNELS 3 Zrotation Yrotation Xrotation
							End Site
							{
								OFFSET 0.000000 0.000000 0.000000
							}
						}
						JOINT mixamorig:HairA
						{
							OFFSET -11.484100 27.496475 17.498951
							CHANNELS 3 Zrotation Yrotation Xrotation
							End Site
							{
								OFFSET 0.000000 0.000000 0.000000
							}
						}
						JOINT mixamorig:Bow_Left
						{
							OFFSET -6.807600 33.586777 20.752766
							CHANNELS 3 Zrotation Yrotation Xrotation
							End Site
							{
								OFFSET 0.000000 0.000000 0.000000
							}
						}
						JOINT mixamorig:Bow_Right
						{
							OFFSET -11.133100 30.313980 19.500957
							CHANNELS 3 Zrotation Yrotation Xrotation
							End Site
							{
								OFFSET 0.000000 0.000000 0.000000
							}
						}
						JOINT mixamorig:HairC
						{
							OFFSET 2.525900 31.959274 20.608562
							CHANNELS 3 Zrotation Yrotation Xrotation
							JOINT mixamorig:HairC1
							{
								OFFSET 1.733735 -3.232010 3.632423
								CHANNELS 3 Zrotation Yrotation Xrotation
								End Site
								{
									OFFSET 0.000000 0.000000 0.000000
								}
							}
						}
						JOINT mixamorig:Ponytail
						{
							OFFSET -0.181100 31.348724 -13.427048
							CHANNELS 3 Zrotation Yrotation Xrotation
							JOINT mixamorig:Ponytail1
							{
								OFFSET -0.746532 2.567368 -7.327436
								CHANNELS 3 Zrotation Yrotation Xrotation
								JOINT mixamorig:Ponytail2
								{
									OFFSET -0.357839 -10.803711 -7.221615
									CHANNELS 3 Zrotation Yrotation Xrotation
									End Site
									{
										OFFSET 0.000000 0.000000 0.000000
									}
								}
							}
						}
					}
				}
				JOINT mixamorig:LeftShoulder
				{
					OFFSET 4.215800 16.566912 -4.092373
					CHANNELS 3 Zrotation Yrotation Xrotation
					JOINT mixamorig:LeftArm
					{
						OFFSET 8.521194 -0.267406 -1.717659
						CHANNELS 3 Zrotation Yrotation Xrotation
						JOINT mixamorig:LeftForeArm
						{
							OFFSET 21.262897 0.000002 -0.000001
							CHANNELS 3 Zrotation Yrotation Xrotation
							JOINT mixamorig:LeftHand
							{
								OFFSET 21.154701 -0.000003 -0.000001
								CHANNELS 3 Zrotation Yrotation Xrotation
								JOINT mixamorig:LeftHandThumb1
								{
									OFFSET 4.109039 -1.962593 2.610258
									CHANNELS 3 Zrotation Yrotation Xrotation
									JOINT mixamorig:LeftHandThumb2
									{
										OFFSET 3.101486 -1.790642 1.790644
										CHANNELS 3 Zrotation Yrotation Xrotation
										JOINT mixamorig:LeftHandThumb3
										{
											OFFSET 3.038742 -1.754417 1.754420
											CHANNELS 3 Zrotation Yrotation Xrotation
											JOINT mixamorig:LeftHandThumb4
											{
												OFFSET 2.539978 -1.466461 1.466458
												CHANNELS 3 Zrotation Yrotation Xrotation
												End Site
												{
													OFFSET 0.000000 0.000000 0.000000
												}
											}
										}
									}
								}
								JOINT mixamorig:LeftHandIndex1
								{
									OFFSET 11.845871 -0.683540 3.729384
									CHANNELS 3 Zrotation Yrotation Xrotation
									JOINT mixamorig:LeftHandIndex2
									{
										OFFSET 3.283096 0.000000 -0.000000
										CHANNELS 3 Zrotation Yrotation Xrotation
										JOINT mixamorig:LeftHandIndex3
										{
											OFFSET 3.323807 0.000000 -0.000000
											CHANNELS 3 Zrotation Yrotation Xrotation
											JOINT mixamorig:LeftHandIndex4
											{
												OFFSET 3.020599 0.000000 -0.000000
												CHANNELS 3 Zrotation Yrotation Xrotation
												End Site
												{
													OFFSET 0.000000 0.000000 0.000000
												}
											}
										}
									}
								}
								JOINT mixamorig:LeftHandMiddle1
								{
									OFFSET 12.082413 0.000000 -0.000000
									CHANNELS 3 Zrotation Yrotation Xrotation
									JOINT mixamorig:LeftHandMiddle2
									{
										OFFSET 3.410500 0.000000 0.000000
										CHANNELS 3 Zrotation Yrotation Xrotation
										JOINT mixamorig:LeftHandMiddle3
										{
											OFFSET 3.312202 0.000000 0.000000
											CHANNELS 3 Zrotation Yrotation Xrotation
											JOINT mixamorig:LeftHandMiddle4
											{
												OFFSET 3.438499 0.000000 0.000000
												CHANNELS 3 Zrotation Yrotation Xrotation
												End Site
												{
													OFFSET 0.000000 0.000000 0.000000
												}
											}
										}
									}
								}
								JOINT mixamorig:LeftHandRing1
								{
									OFFSET 12.470573 0.087585 -2.973213
									CHANNELS 3 Zrotation Yrotation Xrotation
									JOINT mixamorig:LeftHandRing2
									{
										OFFSET 3.053307 0.000000 0.000000
										CHANNELS 3 Zrotation Yrotation Xrotation
										JOINT mixamorig:LeftHandRing3
										{
											OFFSET 3.295898 0.000000 0.000000
											CHANNELS 3 Zrotation Yrotation Xrotation
											JOINT mixamorig:LeftHandRing4
											{
												OFFSET 3.727997 0.000000 0.000000
												CHANNELS 3 Zrotation Yrotation Xrotation
												End Site
												{
													OFFSET 0.000000 0.000000 0.000000
												}
											}
										}
									}
								}
								JOINT mixamorig:LeftHandPinky1
								{
									OFFSET 11.691048 -0.779549 -5.760270
									CHANNELS 3 Zrotation Yrotation Xrotation
									JOINT mixamorig:LeftHandPinky2
									{
										OFFSET 2.861702 0.000000 0.000000
										CHANNELS 3 Zrotation Yrotation Xrotation
										JOINT mixamorig:LeftHandPinky3
										{
											OFFSET 2.863403 0.000000 0.000000
											CHANNELS 3 Zrotation Yrotation Xrotation
											JOINT mixamorig:LeftHandPinky4
											{
												OFFSET 2.545403 0.000000 0.000000
												CHANNELS 3 Zrotation Yrotation Xrotation
												End Site
												{
													OFFSET 0.000000 0.000000 0.000000
												}
											}
										}
									}
								}
							}
							JOINT mixamorig:LeftWristTwist
							{
								OFFSET 10.565701 0.000000 -0.000000
								CHANNELS 3 Zrotation Yrotation Xrotation
								End Site
								{
									OFFSET 0.000000 0.000000 0.000000
								}
							}
						}
						JOINT mixamorig:LeftUpArmTwist
						{
							OFFSET 10.646198 0.000000 -0.000000
							CHANNELS 3 Zrotation Yrotation Xrotation
							End Site
							{
								OFFSET 0.000000 0.000000 0.000000
							}
						}
					}
				}
				JOINT mixamorig:Right_Breast
				{
					OFFSET -2.562200 12.208893 5.100423
					CHANNELS 3 Zrotation Yrotation Xrotation
					End Site
					{
						OFFSET 0.000000 0.000000 0.000000
					}
				}
				JOINT mixamorig:Left_Breast
				{
					OFFSET 2.562200 12.208893 5.100423
					CHANNELS 3 Zrotation Yrotation Xrotation
					End Site
					{
						OFFSET 0.000000 0.000000 0.000000
					}
				}
				JOINT mixamorig:RightShoulder
				{
					OFFSET -4.215800 16.567416 -4.092373
					CHANNELS 3 Zrotation Yrotation Xrotation
					JOINT mixamorig:RightArm
					{
						OFFSET -8.521288 -0.267902 -1.717664
						CHANNELS 3 Zrotation Yrotation Xrotation
						JOINT mixamorig:RightForeArm
						{
							OFFSET -21.262793 -0.000002 0.000001
							CHANNELS 3 Zrotation Yrotation Xrotation
							JOINT mixamorig:RightHand
							{
								OFFSET -21.154800 0.000000 -0.000001
								CHANNELS 3 Zrotation Yrotation Xrotation
								JOINT mixamorig:RightHandThumb1
								{
									OFFSET -4.108955 -1.962654 2.610195
									CHANNELS 3 Zrotation Yrotation Xrotation
									JOINT mixamorig:RightHandThumb2
									{
										OFFSET -3.101406 -1.790596 1.790599
										CHANNELS 3 Zrotation Yrotation Xrotation
										JOINT mixamorig:RightHandThumb3
										{
											OFFSET -3.038822 -1.754463 1.754464
											CHANNELS 3 Zrotation Yrotation Xrotation
											JOINT mixamorig:RightHandThumb4
											{
												OFFSET -2.539749 -1.466324 1.466325
												CHANNELS 3 Zrotation Yrotation Xrotation
												End Site
												{
													OFFSET 0.000000 0.000000 0.000000
												}
											}
										}
									}
								}
								JOINT mixamorig:RightHandIndex1
								{
									OFFSET -11.845840 -0.684052 3.729363
									CHANNELS 3 Zrotation Yrotation Xrotation
									JOINT mixamorig:RightHandIndex2
									{
										OFFSET -3.283096 0.000000 -0.000000
										CHANNELS 3 Zrotation Yrotation Xrotation
										JOINT mixamorig:RightHandIndex3
										{
											OFFSET -3.323807 0.000000 -0.000000
											CHANNELS 3 Zrotation Yrotation Xrotation
											JOINT mixamorig:RightHandIndex4
											{
												OFFSET -3.020599 0.000000 0.000000
												CHANNELS 3 Zrotation Yrotation Xrotation
												End Site
												{
													OFFSET 0.000000 0.000000 0.000000
												}
											}
										}
									}
								}
								JOINT mixamorig:RightHandMiddle1
								{
									OFFSET -12.082314 0.000000 0.000000
									CHANNELS 3 Zrotation Yrotation Xrotation
									JOINT mixamorig:RightHandMiddle2
									{
										OFFSET -3.410606 0.000000 0.000000
										CHANNELS 3 Zrotation Yrotation Xrotation
										JOINT mixamorig:RightHandMiddle3
										{
											OFFSET -3.312195 0.000000 0.000000
											CHANNELS 3 Zrotation Yrotation Xrotation
											JOINT mixamorig:RightHandMiddle4
											{
												OFFSET -3.438499 0.000000 0.000000
												CHANNELS 3 Zrotation Yrotation Xrotation
												End Site
												{
													OFFSET 0.000000 0.000000 0.000000
												}
											}
										}
									}
								}
								JOINT mixamorig:RightHandRing1
								{
									OFFSET -12.470573 0.087166 -2.973210
									CHANNELS 3 Zrotation Yrotation Xrotation
									JOINT mixamorig:RightHandRing2
									{
										OFFSET -3.053299 0.000000 0.000000
										CHANNELS 3 Zrotation Yrotation Xrotation
										JOINT mixamorig:RightHandRing3
										{
											OFFSET -3.295898 0.000000 0.000000
											CHANNELS 3 Zrotation Yrotation Xrotation
											JOINT mixamorig:RightHandRing4
											{
												OFFSET -3.727997 0.000000 0.000000
												CHANNELS 3 Zrotation Yrotation Xrotation
												End Site
												{
													OFFSET 0.000000 0.000000 0.000000
												}
											}
										}
									}
								}
								JOINT mixamorig:RightHandPinky1
								{
									OFFSET -11.691017 -0.779953 -5.760294
									CHANNELS 3 Zrotation Yrotation Xrotation
									JOINT mixamorig:RightHandPinky2
									{
										OFFSET -2.861603 0.000000 0.000000
										CHANNELS 3 Zrotation Yrotation Xrotation
										JOINT mixamorig:RightHandPinky3
										{
											OFFSET -2.863403 0.000000 0.000000
											CHANNELS 3 Zrotation Yrotation Xrotation
											JOINT mixamorig:RightHandPinky4
											{
												OFFSET -2.545303 0.000000 0.000000
												CHANNELS 3 Zrotation Yrotation Xrotation
												End Site
												{
													OFFSET 0.000000 0.000000 0.000000
												}
											}
										}
									}
								}
							}
							JOINT mixamorig:RightWristTwist
							{
								OFFSET -10.565701 0.000000 0.000000
								CHANNELS 3 Zrotation Yrotation Xrotation
								End Site
								{
									OFFSET 0.000000 0.000000 0.000000
								}
							}
						}
						JOINT mixamorig:RightUpArmTwist
						{
							OFFSET -10.646093 0.000000 0.000001
							CHANNELS 3 Zrotation Yrotation Xrotation
							End Site
							{
								OFFSET 0.000000 0.000000 0.000000
							}
						}
					}
				}
			}
		}
		JOINT mixamorig:Belly
		{
			OFFSET 0.000000 -0.538567 3.357786
			CHANNELS 3 Zrotation Yrotation Xrotation
			End Site
			{
				OFFSET 0.000000 0.000000 0.000000
			}
		}
	}
	JOINT mixamorig:LeftUpLeg
	{
		OFFSET 8.267015 -7.995487 -0.379100
		CHANNELS 3 Zrotation Yrotation Xrotation
		JOINT mixamorig:LeftLeg
		{
			OFFSET -0.000034 -32.369440 0.062314
			CHANNELS 3 Zrotation Yrotation Xrotation
			JOINT mixamorig:LeftFoot
			{
				OFFSET 0.000024 -35.030462 -2.208349
				CHANNELS 3 Zrotation Yrotation Xrotation
				JOINT mixamorig:LeftToeBase
				{
					OFFSET 1.232905 -9.835773 10.854839
					CHANNELS 3 Zrotation Yrotation Xrotation
					JOINT mixamorig:LeftToe_End
					{
						OFFSET 0.210410 0.001970 7.008142
						CHANNELS 3 Zrotation Yrotation Xrotation
						End Site
						{
							OFFSET 0.000000 0.000000 0.000000
						}
					}
				}
			}
		}
	}
	JOINT mixamorig:RightUpLeg
	{
		OFFSET -8.266986 -7.995517 -0.379100
		CHANNELS 3 Zrotation Yrotation Xrotation
		JOINT mixamorig:RightLeg
		{
			OFFSET 0.000002 -32.369437 0.062314
			CHANNELS 3 Zrotation Yrotation Xrotation
			JOINT mixamorig:RightFoot
			{
				OFFSET 0.000001 -35.030467 -2.208349
				CHANNELS 3 Zrotation Yrotation Xrotation
				JOINT mixamorig:RightToeBase
				{
					OFFSET -1.232895 -9.835700 10.854908
					CHANNELS 3 Zrotation Yrotation Xrotation
					JOINT mixamorig:RightToe_End
					{
						OFFSET -0.214257 0.001952 7.007725
						CHANNELS 3 Zrotation Yrotation Xrotation
						End Site
						{
							OFFSET 0.000000 0.000000 0.000000
						}
					}
				}
			}
		}
	}
	JOINT mixamorig:SkirtA
	{
		OFFSET 11.243096 1.931320 -10.868500
		CHANNELS 3 Zrotation Yrotation Xrotation
		JOINT mixamorig:SkirtA1
		{
			OFFSET 2.094878 -7.760521 -3.754759
			CHANNELS 3 Zrotation Yrotation Xrotation
			End Site
			{
				OFFSET 0.000000 0.000000 0.000000
			}
		}
	}
	JOINT mixamorig:SkirtB
	{
		OFFSET -0.000008 4.335800 -15.692000
		CHANNELS 3 Zrotation Yrotation Xrotation
		JOINT mixamorig:SkirtB1
		{
			OFFSET 0.000000 -9.729668 -3.399943
			CHANNELS 3 Zrotation Yrotation Xrotation
			End Site
			{
				OFFSET 0.000000 0.000000 0.000000
			}
		}
	}
	JOINT mixamorig:SkirtC
	{
		OFFSET -11.243104 1.931381 -10.868500
		CHANNELS 3 Zrotation Yrotation Xrotation
		JOINT mixamorig:SkirtC1
		{
			OFFSET -1.996108 -7.801628 -3.723248
			CHANNELS 3 Zrotation Yrotation Xrotation
			End Site
			{
				OFFSET 0.000000 0.000000 0.000000
			}
		}
	}
}
MOTION
Frames: 4
Frame Time: 0.016667
-90.627319 80.253746 88.932220 109.525830 -14.643308 -68.028561 -3.085901 4.043655 2.517627 -2.198279 17.530446 5.850563 -4.078077 13.667764 4.985038 -9.871627 5.565990 1.617775 -24.728008 15.502842 9.298645 0.000001 0.000003 0.000000 -0.000002 0.000004 -0.000004 0.000000 0.000000 -0.000003 0.000007 0.000000 -0.000003 0.000000 0.000002 0.000002 0.000001 0.000004 -0.000001 -0.000003 -0.000004 0.000005 -0.000001 0.000003 0.000002 0.000005 -0.000002 0.000003 -0.000002 0.000002 0.000003 -24.496791 15.306619 2.499586 -30.216849 20.378584 -22.431521 0.872484 0.444087 -2.082515 -6.850387 1.706358 51.955390 0.395232 -10.637928 -3.219711 7.097299 26.180093 10.021637 14.893302 9.533338 -3.708637 -0.000004 0.000002 -0.000000 -25.343610 3.391904 -1.142045 -15.810259 1.599261 -0.222077 -16.438390 1.661099 -0.239962 0.000000 -0.000002 -0.000001 -27.543818 4.735544 -1.697644 -24.860176 2.466873 -0.543813 -25.718205 2.546236 -0.581348 0.000000 0.000000 0.000001 -31.948001 5.624957 -2.080179 -29.028321 2.846750 -0.737102 -29.908312 2.925058 -0.781410 -0.000001 0.000000 0.000000 -26.021383 7.633629 -3.740822 -23.385300 2.329192 -0.482086 -30.215251 2.952209 -0.797154 0.000001 -0.000004 0.000001 0.000000 -0.000001 0.000000 -0.000000 0.000002 -0.000001 -0.000001 0.000000 0.000001 -0.000001 0.000000 0.000001 17.800239 22.389791 -1.372051 76.558029 57.459650 81.106413 4.921480 49.143018 3.878144 5.841379 23.341712 48.356005 -2.222976 24.562969 -17.489199 -14.474544 -38.676403 16.389442 -14.676857 -0.597934 -6.857313 0.000000 0.000003 0.000002 12.679648 -4.758442 -0.566152 13.535949 -1.092312 -0.129630 13.534040 -1.092150 -0.129605 0.000001 -0.000003 -0.000000 26.718660 -5.498288 -1.478982 27.977478 -2.188545 -0.545280 30.002204 -2.332580 -0.625140 -0.000001 0.000000 0.000000 35.682146 -6.780979 -2.163356 33.814631 -2.595684 -0.789119 35.835282 -2.730538 -0.883031 -0.000001 0.000000 0.000000 45.199717 -7.642153 -3.498708 41.014098 -3.060088 -1.144780 40.872368 -3.051381 -1.137220 -0.000003 -0.000001 0.000000 -0.000002 0.000003 -0.000001 0.000000 0.000000 -0.000002 -0.000002 0.000000 0.000001 41.892481 34.983293 -21.409268 -0.327365 -7.454466 21.691087 9.542175 22.667047 43.727932 0.000000 -0.000004 7.564579 -0.000003 0.000002 0.000002 -27.811593 -46.687813 -72.955757 0.028748 6.193366 32.827925 -2.539977 -19.379885 -24.288812 -0.000002 -0.000002 -2.201411 0.000000 0.000003 0.000000 -0.000002 -0.000000 -0.000004 0.000000 -0.000002 0.000000 0.000001 0.000000 0.000000 0.000001 -0.000002 -0.000003 0.000001 0.000001 -0.000002 -0.000002 0.000001 -0.000000 
-91.221237 80.253746 89.428329 110.460750 -14.257306 -69.029934 -2.953609 3.974514 2.821699 -2.132595 16.968425 6.526222 -4.231124 12.730004 5.541351 -9.975171 5.529354 2.112183 -24.550558 15.274283 9.606936 0.000000 -0.000001 0.000000 -0.000003 -0.000002 0.000000 -0.000001 0.000002 -0.000000 0.000006 -0.000005 -0.000001 -0.000002 0.000001 0.000005 0.000001 -0.000003 -0.000000 0.000003 -0.000000 0.000004 0.000001 -0.000002 0.000003 0.000003 0.000001 0.000004 -0.000004 0.000003 0.000002 -23.200674 14.996641 2.453678 -33.429200 22.638993 -22.720189 0.922097 0.494725 -2.144466 -10.705473 5.842175 50.677943 -0.676939 -11.456514 -2.407813 8.065213 28.671498 10.865624 15.279721 11.041231 -3.015154 -0.000004 0.000001 0.000003 -29.404691 3.457864 -1.418657 -18.774742 1.889059 -0.312333 -19.464461 1.955737 -0.335455 -0.000005 -0.000004 0.000002 -32.186384 5.091387 -2.101679 -29.604092 2.898062 -0.765961 -30.552024 2.981903 -0.814587 0.000000 0.000001 0.000000 -37.471893 6.163601 -2.591021 -34.575220 3.328247 -1.036110 -35.545848 3.409389 -1.093152 0.000001 -0.000001 -0.000001 -30.517599 8.606797 -4.552044 -27.930937 2.748141 -0.683559 -35.950333 3.442908 -1.117334 0.000001 0.000000 0.000000 0.000000 0.000000 -0.000002 0.000000 0.000000 -0.000002 0.000001 0.000000 0.000000 0.000001 0.000000 0.000000 18.870228 23.984065 -1.365292 73.493230 54.419745 77.658056 4.730619 48.784647 3.802289 3.728778 25.723166 46.082334 -2.177539 25.047342 -17.728686 -14.903529 -39.353861 16.792131 -14.690702 -0.416419 -6.944550 0.000002 0.000002 0.000005 12.967483 -4.818544 -0.582505 13.921928 -1.122829 -0.137100 13.917071 -1.122469 -0.136995 0.000002 0.000000 0.000000 27.434575 -5.574558 -1.531050 28.798355 -2.247298 -0.577047 30.872407 -2.393613 -0.661027 0.000000 -0.000001 0.000000 36.661841 -6.873617 -2.242227 34.810944 -2.662592 -0.834820 36.883858 -2.799152 -0.933592 -0.000005 0.000002 -0.000000 46.445925 -7.737171 -3.616960 42.226275 -3.133689 -1.210275 42.078582 -3.124777 -1.202207 -0.000001 0.000001 -0.000000 0.000000 0.000001 0.000000 0.000000 0.000000 0.000003 0.000001 0.000001 -0.000002 42.677766 34.730442 -21.758013 -0.674950 -5.191850 31.119260 3.428238 26.201557 39.055495 -0.000051 0.000003 7.415868 0.000001 0.000002 0.000000 -28.840727 -46.548468 -72.245070 0.278591 6.456762 32.461226 -2.049458 -18.891007 -24.515661 0.000000 0.000020 -2.154195 0.000000 -0.000001 0.000000 0.000002 0.000002 -0.000003 -0.000002 -0.000001 0.000002 -0.000000 0.000002 -0.000003 0.000000 -0.000002 -0.000002 0.000002 0.000001 0.000003 0.000000 0.000001 0.000001 
-91.798210 80.289230 89.951096 111.454260 -13.910862 -70.248022 -2.735127 3.842967 3.167079 -2.378842 15.618397 7.163800 -3.798235 12.914413 6.320140 -10.282879 5.580913 2.593646 -24.319947 15.125103 10.019435 -0.000000 0.000001 -0.000001 -0.000004 0.000000 0.000003 0.000000 -0.000003 -0.000002 0.000008 -0.000001 -0.000000 -0.000003 0.000005 0.000003 -0.000002 -0.000000 -0.000006 0.000003 -0.000004 0.000002 -0.000001 0.000000 0.000003 0.000000 0.000001 0.000002 0.000000 0.000002 0.000004 -22.152038 14.867122 2.433674 -36.136157 24.698648 -23.115708 0.954825 0.475816 -2.192319 -14.224517 9.616036 47.828761 -1.744775 -12.177969 -1.643230 9.035586 30.997448 11.724162 15.655264 12.429826 -2.360441 -0.000003 0.000001 0.000002 -33.201322 3.497301 -1.695380 -21.581803 2.158683 -0.411484 -22.285587 2.225479 -0.438399 0.000000 0.000000 -0.000001 -36.560801 5.413375 -2.504783 -34.096239 3.287871 -1.008474 -35.088248 3.371263 -1.066076 -0.000001 -0.000002 -0.000001 -42.699357 6.661853 -3.102178 -39.820225 3.754610 -1.360314 -40.828409 3.833016 -1.427025 0.000000 0.000000 -0.000001 -34.812990 9.547911 -5.377435 -32.233883 3.128608 -0.904229 -41.349167 3.873065 -1.462034 -0.000000 0.000004 -0.000002 -0.000001 -0.000001 0.000001 0.000000 -0.000001 0.000000 -0.000001 -0.000000 -0.000002 -0.000001 -0.000000 -0.000002 19.709583 25.145107 -1.168652 69.563503 52.261284 73.463426 4.857858 47.903232 3.928548 2.516788 27.746142 44.004084 -2.160073 25.347342 -17.850256 -15.177854 -39.781063 17.050797 -14.697220 -0.297090 -7.001360 0.000002 -0.000001 0.000001 13.143766 -4.853691 -0.592568 14.163465 -1.141921 -0.141882 14.154776 -1.141235 -0.141696 0.000000 -0.000001 -0.000002 27.897165 -5.621856 -1.564964 29.328033 -2.284946 -0.597981 31.426875 -2.432197 -0.684371 0.000001 0.000000 0.000000 37.293458 -6.923910 -2.293450 35.456349 -2.705490 -0.865047 37.558090 -2.842774 -0.966776 -0.000001 0.000002 -0.000000 47.238680 -7.783788 -3.688914 43.013704 -3.180750 -1.253634 42.860957 -3.171667 -1.245181 0.000000 0.000000 0.000001 0.000000 0.000000 0.000000 0.000000 0.000000 0.000002 0.000000 0.000001 0.000004 43.169018 34.159715 -21.488185 -0.706753 -3.170911 39.818258 -1.230378 28.027432 35.426669 -0.000039 0.000012 6.241616 -0.000001 -0.000002 -0.000002 -29.948598 -46.273804 -71.430126 0.607647 6.812524 32.118636 -1.607139 -18.444142 -24.644949 0.000005 -0.000005 -2.122267 0.000000 0.000000 0.000000 -0.000002 -0.000001 -0.000006 0.000003 -0.000000 0.000001 -0.000001 0.000000 0.000002 0.000001 -0.000002 0.000002 -0.000000 -0.000003 0.000002 0.000000 0.000000 0.000003 
-92.354073 80.353714 90.511208 112.476716 -13.591928 -71.611700 -2.465532 3.650721 3.493342 -0.383470 18.409241 8.706782 -1.155711 17.296420 7.888626 -10.669391 5.676866 3.111250 -24.038291 14.975324 10.484547 0.000000 0.000000 0.000001 -0.000002 0.000001 0.000001 0.000002 -0.000003 -0.000003 0.000007 -0.000003 -0.000000 -0.000002 0.000001 0.000001 -0.000001 -0.000000 -0.000001 -0.000001 -0.000001 0.000001 -0.000002 0.000000 0.000002 -0.000004 0.000003 0.000002 -0.000003 0.000001 -0.000001 -20.730035 16.552513 2.583455 -38.567753 26.510731 -23.498200 0.931223 0.324113 -2.095650 -16.937231 13.339317 44.799041 -2.765321 -12.759105 -0.986164 9.952617 33.049545 12.545481 15.995052 13.625372 -1.783430 -0.000001 0.000001 0.000005 -36.548560 3.513295 -1.952627 -24.101400 2.396232 -0.511629 -24.759084 2.457482 -0.539478 0.000000 0.000002 0.000000 -40.452056 5.695127 -2.879711 -38.123449 3.619986 -1.251188 -39.100941 3.697938 -1.313577 -0.000000 0.000002 -0.000001 -47.377845 7.111034 -3.578988 -44.510646 4.109084 -1.682119 -45.487957 4.179558 -1.752762 -0.000003 0.000001 -0.000001 -38.706439 10.428492 -6.181658 -36.083452 3.453908 -1.125324 -46.144707 4.226200 -1.800882 0.000000 0.000000 0.000000 0.000001 0.000002 0.000000 0.000000 0.000001 0.000000 0.000001 0.000001 -0.000003 0.000001 0.000001 -0.000003 20.193532 25.637736 -1.184851 65.358753 51.320424 70.078843 3.446016 46.847888 2.586161 1.621964 29.478686 42.058492 -2.165313 25.509558 -17.879182 -15.332755 -40.024278 17.197822 -14.697818 -0.222882 -7.035778 0.000002 -0.000002 -0.000002 13.236418 -4.869905 -0.597868 14.297751 -1.152525 -0.144563 14.284138 -1.151443 -0.144274 -0.000001 -0.000003 0.000000 28.174226 -5.647854 -1.585366 29.644285 -2.307342 -0.610651 31.748635 -2.454474 -0.698084 0.000001 0.000001 -0.000001 37.669770 -6.941961 -2.324128 35.845133 -2.731166 -0.883480 37.957509 -2.868448 -0.986679 -0.000003 -0.000001 0.000001 47.696794 -7.793256 -3.725654 43.490861 -3.208961 -1.280231 43.333479 -3.199675 -1.271434 0.000000 0.000001 0.000000 0.000001 0.000000 0.000000 -0.000001 0.000000 0.000001 -0.000002 0.000002 -0.000000 43.212893 33.354411 -20.904922 -0.551366 -1.253616 48.357830 -2.685146 28.165678 33.217230 -0.000002 0.000006 4.658319 0.000001 0.000000 -0.000001 -31.183613 -45.872723 -70.239832 0.958434 7.233577 31.338994 -1.191674 -17.988595 -24.681472 0.000007 -0.000004 -2.093672 0.000000 -0.000003 0.000000 0.000001 0.000001 -0.000001 -0.000000 0.000001 -0.000002 0.000001 0.000002 -0.000002 -0.000000 -0.000001 0.000005 0.000000 0.000002 0.000000 0.000001 0.000002 0.000002 
